<svg width="372" height="399" viewBox="0 0 372 399" fill="none" xmlns="http://www.w3.org/2000/svg">
<path d="M362.133 272.265L174.287 392.236C161.348 400.499 138.733 400.359 123.776 391.91L-93.5975 269.376C-108.571 260.942 -110.217 247.398 -97.2786 239.135L90.568 119.164C103.506 110.901 126.121 111.041 141.079 119.49L358.437 242.039C373.41 250.473 375.056 263.94 362.133 272.265Z" fill="#F6F7FB"/>
<path d="M370.707 139.604V208.707L179.21 336.693L-105.169 207.434V141.593L326.782 142.664L370.707 139.604Z" fill="#FAFBFC"/>
<path d="M362.57 159.222L174.739 279.193C161.8 287.456 139.186 287.316 124.228 278.867L-93.1453 156.333C-108.118 147.899 -109.765 134.355 -96.8265 126.092L91.0201 6.10537C103.958 -2.15777 126.573 -2.01796 141.531 6.43156L358.889 128.981C373.862 137.43 375.508 150.959 362.57 159.222Z" fill="white"/>
</svg>
