<svg width="48" height="48" viewBox="0 0 48 48" fill="none" xmlns="http://www.w3.org/2000/svg">
<g filter="url(#filter0_d)">
<circle cx="21" cy="20" r="18" fill="white"/>
</g>
<path d="M27.9644 17.1161C27.9316 16.3722 27.8113 15.8608 27.6389 15.4176C27.4611 14.9472 27.1876 14.5261 26.8292 14.176C26.4791 13.8205 26.0551 13.5442 25.59 13.3692C25.1442 13.1969 24.6354 13.0766 23.8914 13.0438C23.1418 13.0082 22.9039 13 21.0027 13C19.1016 13 18.8636 13.0082 18.1168 13.041C17.3728 13.0738 16.8613 13.1942 16.4182 13.3664C15.9476 13.5442 15.5264 13.8177 15.1762 14.176C14.8206 14.5261 14.5444 14.95 14.3693 15.415C14.1969 15.8608 14.0766 16.3694 14.0438 17.1133C14.0082 17.8627 14 18.1006 14 20.0014C14 21.9022 14.0082 22.1401 14.041 22.8867C14.0738 23.6306 14.1943 24.142 14.3666 24.5852C14.5444 25.0555 14.8206 25.4767 15.1762 25.8268C15.5264 26.1823 15.9504 26.4586 16.4154 26.6336C16.8613 26.8059 17.37 26.9262 18.1142 26.959C18.8609 26.9919 19.0989 27 21.0001 27C22.9012 27 23.1391 26.9919 23.8859 26.959C24.63 26.9262 25.1415 26.8059 25.5846 26.6336C26.5256 26.2698 27.2697 25.5259 27.6335 24.5852C27.8057 24.1393 27.9262 23.6306 27.959 22.8867C27.9918 22.1401 28 21.9022 28 20.0014C28 18.1006 27.9972 17.8627 27.9644 17.1161ZM26.7034 22.832C26.6733 23.5158 26.5584 23.885 26.4627 24.1311C26.2274 24.741 25.7433 25.2251 25.1332 25.4603C24.887 25.556 24.5151 25.6709 23.8339 25.7009C23.0953 25.7338 22.8738 25.7419 21.0055 25.7419C19.1372 25.7419 18.9129 25.7338 18.177 25.7009C17.4931 25.6709 17.1239 25.556 16.8777 25.4603C16.5741 25.3482 16.2978 25.1704 16.0735 24.9379C15.841 24.7109 15.6632 24.4374 15.551 24.1339C15.4552 23.8877 15.3404 23.5158 15.3103 22.8348C15.2774 22.0964 15.2693 21.8748 15.2693 20.0068C15.2693 18.1389 15.2774 17.9146 15.3103 17.179C15.3404 16.4952 15.4552 16.126 15.551 15.8799C15.6632 15.5763 15.841 15.3001 16.0763 15.0758C16.3032 14.8433 16.5768 14.6655 16.8804 14.5535C17.1266 14.4577 17.4987 14.3429 18.1798 14.3128C18.9183 14.28 19.14 14.2717 21.0082 14.2717C22.8793 14.2717 23.1008 14.28 23.8367 14.3128C24.5205 14.3429 24.8898 14.4577 25.136 14.5535C25.4396 14.6655 25.7159 14.8433 25.9402 15.0758C26.1727 15.3028 26.3505 15.5763 26.4627 15.8799C26.5584 16.126 26.6733 16.4979 26.7034 17.179C26.7362 17.9174 26.7445 18.1389 26.7445 20.0068C26.7445 21.8748 26.7362 22.0936 26.7034 22.832Z" fill="#EE2A9F"/>
<path d="M21.5 17C19.5677 17 18 18.5676 18 20.5C18 22.4324 19.5677 24 21.5 24C23.4324 24 25 22.4324 25 20.5C25 18.5676 23.4324 17 21.5 17ZM21.5 22.7704C20.2465 22.7704 19.2296 21.7537 19.2296 20.5C19.2296 19.2463 20.2465 18.2296 21.5 18.2296C22.7537 18.2296 23.7704 19.2463 23.7704 20.5C23.7704 21.7537 22.7537 22.7704 21.5 22.7704Z" fill="#EE2A9F"/>
<path d="M26 16C26 16.5522 25.5523 17 24.9999 17C24.4477 17 24 16.5522 24 16C24 15.4476 24.4477 15 24.9999 15C25.5523 15 26 15.4476 26 16Z" fill="#EE2A9F"/>
<defs>
<filter id="filter0_d" x="0" y="0" width="48" height="48" filterUnits="userSpaceOnUse" color-interpolation-filters="sRGB">
<feFlood flood-opacity="0" result="BackgroundImageFix"/>
<feColorMatrix in="SourceAlpha" type="matrix" values="0 0 0 0 0 0 0 0 0 0 0 0 0 0 0 0 0 0 127 0"/>
<feMorphology radius="2" operator="dilate" in="SourceAlpha" result="effect1_dropShadow"/>
<feOffset dx="3" dy="4"/>
<feGaussianBlur stdDeviation="2"/>
<feColorMatrix type="matrix" values="0 0 0 0 0 0 0 0 0 0 0 0 0 0 0 0 0 0 0.05 0"/>
<feBlend mode="normal" in2="BackgroundImageFix" result="effect1_dropShadow"/>
<feBlend mode="normal" in="SourceGraphic" in2="effect1_dropShadow" result="shape"/>
</filter>
</defs>
</svg>
