<svg width="478" height="399" viewBox="0 0 478 399" fill="none" xmlns="http://www.w3.org/2000/svg">
<path d="M468.133 272.265L280.287 392.236C267.348 400.499 244.733 400.359 229.776 391.91L12.4025 269.376C-2.57052 260.942 -4.21693 247.398 8.7214 239.135L196.568 119.164C209.506 110.901 232.121 111.041 247.079 119.49L464.437 242.039C479.41 250.473 481.056 263.94 468.133 272.265Z" fill="#F6F7FB"/>
<path d="M476.707 139.604V208.707L285.21 336.693L0.831055 207.434V141.593L432.782 142.664L476.707 139.604Z" fill="#FAFBFC"/>
<path d="M468.57 159.222L280.739 279.193C267.8 287.456 245.186 287.316 230.228 278.867L12.8547 156.333C-2.11837 147.899 -3.76479 134.355 9.17355 126.092L197.02 6.10537C209.958 -2.15777 232.573 -2.01796 247.531 6.43156L464.889 128.981C479.862 137.43 481.508 150.959 468.57 159.222Z" fill="white"/>
</svg>
