<svg width="102" height="75" viewBox="0 0 102 75" fill="none" xmlns="http://www.w3.org/2000/svg">
<path d="M23.4998 30.0002C22.3848 30.0002 21.3148 30.1702 20.2498 30.3252C20.5948 29.1652 20.9498 27.9852 21.5198 26.9252C22.0898 25.3852 22.9798 24.0502 23.8648 22.7052C24.6048 21.2502 25.9098 20.2652 26.8698 19.0202C27.8748 17.8102 29.2448 17.0052 30.3298 16.0002C31.3948 14.9502 32.7898 14.4252 33.8998 13.6852C35.0598 13.0202 36.0698 12.2852 37.1498 11.9352L39.8448 10.8252L42.2148 9.84015L39.7898 0.150146L36.8048 0.870145C35.8498 1.11014 34.6848 1.39014 33.3598 1.72515C32.0048 1.97515 30.5598 2.66015 28.9498 3.28515C27.3598 3.99515 25.5198 4.47515 23.8098 5.61515C22.0898 6.70515 20.1048 7.61515 18.3548 9.07515C16.6598 10.5802 14.6148 11.8852 13.1048 13.8002C11.4548 15.5902 9.82475 17.4702 8.55975 19.6102C7.09475 21.6502 6.09975 23.8902 5.04975 26.1052C4.09975 28.3202 3.33475 30.5852 2.70975 32.7852C1.52475 37.1952 0.99475 41.3852 0.78975 44.9702C0.61975 48.5602 0.71975 51.5452 0.92975 53.7052C1.00475 54.7252 1.14475 55.7152 1.24475 56.4002L1.36975 57.2402L1.49975 57.2102C2.38906 61.3643 4.43627 65.1818 7.40457 68.2211C10.3729 71.2603 14.141 73.3971 18.2729 74.3843C22.4049 75.3715 26.732 75.1687 30.7535 73.7993C34.7751 72.43 38.3268 69.9501 40.9978 66.6466C43.6688 63.343 45.35 59.3508 45.8468 55.1317C46.3437 50.9125 45.6359 46.6389 43.8054 42.8053C41.9749 38.9716 39.0964 35.7345 35.503 33.4684C31.9096 31.2023 27.748 29.9999 23.4998 30.0002ZM78.4998 30.0002C77.3848 30.0002 76.3148 30.1702 75.2498 30.3252C75.5948 29.1652 75.9498 27.9852 76.5198 26.9252C77.0898 25.3852 77.9798 24.0502 78.8648 22.7052C79.6048 21.2502 80.9098 20.2652 81.8698 19.0202C82.8748 17.8102 84.2448 17.0052 85.3298 16.0002C86.3948 14.9502 87.7898 14.4252 88.8998 13.6852C90.0598 13.0202 91.0698 12.2852 92.1498 11.9352L94.8448 10.8252L97.2148 9.84015L94.7898 0.150146L91.8048 0.870145C90.8498 1.11014 89.6848 1.39014 88.3598 1.72515C87.0048 1.97515 85.5598 2.66015 83.9498 3.28515C82.3648 4.00015 80.5198 4.47515 78.8098 5.62015C77.0898 6.71015 75.1048 7.62015 73.3548 9.08015C71.6598 10.5852 69.6148 11.8902 68.1048 13.8002C66.4548 15.5902 64.8248 17.4702 63.5598 19.6102C62.0948 21.6502 61.0998 23.8902 60.0498 26.1052C59.0998 28.3202 58.3348 30.5852 57.7098 32.7852C56.5248 37.1952 55.9948 41.3852 55.7898 44.9702C55.6198 48.5602 55.7198 51.5452 55.9298 53.7052C56.0048 54.7252 56.1448 55.7152 56.2448 56.4002L56.3698 57.2402L56.4998 57.2102C57.3891 61.3643 59.4363 65.1818 62.4046 68.2211C65.3729 71.2603 69.141 73.3971 73.273 74.3843C77.405 75.3715 81.732 75.1687 85.7535 73.7993C89.7751 72.43 93.3268 69.9501 95.9978 66.6466C98.6688 63.343 100.35 59.3508 100.847 55.1317C101.344 50.9125 100.636 46.6389 98.8054 42.8053C96.9749 38.9716 94.0965 35.7345 90.503 33.4684C86.9096 31.2023 82.748 29.9999 78.4998 30.0002Z" fill="#005900" fill-opacity="0.3"/>
</svg>
