<svg width="45" height="45" viewBox="0 0 45 45" fill="none" xmlns="http://www.w3.org/2000/svg">
<g filter="url(#filter0_d)">
<circle cx="19.5" cy="18.5" r="16.5" fill="white"/>
</g>
<path d="M12.4924 25.8518H14.4638C14.7357 25.8518 14.9562 25.6313 14.9562 25.3594V16.7427C14.9562 16.4707 14.7357 16.2502 14.4638 16.2502H12.4924C12.2204 16.2502 12 16.4707 12 16.7427V25.3594C12 25.6313 12.2204 25.8518 12.4924 25.8518Z" fill="#69B7FF"/>
<path d="M12.4924 14.7354H14.4638C14.7357 14.7354 14.9562 14.515 14.9562 14.243V12.4924C14.9562 12.2204 14.7357 12 14.4638 12H12.4924C12.2204 12 12 12.2204 12 12.4924V14.243C12 14.515 12.2204 14.7354 12.4924 14.7354Z" fill="#69B7FF"/>
<path d="M26.4225 17.2498C26.1455 16.8851 25.737 16.5852 25.1969 16.3502C24.6568 16.1153 24.0606 15.9978 23.4084 15.9978C22.0843 15.9978 20.9623 16.5031 20.0424 17.514C19.8594 17.7151 19.7263 17.6712 19.7263 17.3992V16.7427C19.7263 16.4707 19.5058 16.2503 19.2339 16.2503H17.4729C17.2009 16.2503 16.9805 16.4707 16.9805 16.7427V25.3595C16.9805 25.6314 17.2009 25.8519 17.4729 25.8519H19.4442C19.7162 25.8519 19.9367 25.6314 19.9367 25.3595V22.3628C19.9367 21.1144 20.012 20.2587 20.1628 19.7958C20.3135 19.3329 20.5924 18.9612 20.9992 18.6807C21.406 18.4001 21.8653 18.2598 22.3774 18.2598C22.7772 18.2598 23.1191 18.358 23.4032 18.5544C23.6873 18.7508 23.8924 19.026 24.0187 19.3803C24.145 19.7345 24.2081 20.5147 24.2081 21.7211V25.3594C24.2081 25.6314 24.4285 25.8519 24.7005 25.8519H26.6718C26.9438 25.8519 27.1642 25.6314 27.1642 25.3594V20.4796C27.1642 19.617 27.1098 18.9542 27.0012 18.4913C26.8926 18.0284 26.6997 17.6146 26.4225 17.2498Z" fill="#69B7FF"/>
<defs>
<filter id="filter0_d" x="0" y="0" width="45" height="45" filterUnits="userSpaceOnUse" color-interpolation-filters="sRGB">
<feFlood flood-opacity="0" result="BackgroundImageFix"/>
<feColorMatrix in="SourceAlpha" type="matrix" values="0 0 0 0 0 0 0 0 0 0 0 0 0 0 0 0 0 0 127 0"/>
<feMorphology radius="2" operator="dilate" in="SourceAlpha" result="effect1_dropShadow"/>
<feOffset dx="3" dy="4"/>
<feGaussianBlur stdDeviation="2"/>
<feColorMatrix type="matrix" values="0 0 0 0 0 0 0 0 0 0 0 0 0 0 0 0 0 0 0.05 0"/>
<feBlend mode="normal" in2="BackgroundImageFix" result="effect1_dropShadow"/>
<feBlend mode="normal" in="SourceGraphic" in2="effect1_dropShadow" result="shape"/>
</filter>
</defs>
</svg>
