<svg width="147" height="71" viewBox="0 0 147 71" fill="none" xmlns="http://www.w3.org/2000/svg">
<path d="M13.4577 57.8695L11.2148 53.513L8.97183 57.8695H7.24647L0 43.9373H1.98414L8.10915 56.1441L10.309 51.7445L6.2544 43.9373H8.23855L11.2579 49.9329L14.2773 43.9373H16.2614L12.2069 51.7445L14.4067 56.1441L20.5317 43.9373H22.5158L15.2694 57.8695H13.4577Z" fill="white"/>
<path d="M28.037 57.4812C27.045 57.093 26.1823 56.5754 25.5353 55.9284C24.8451 55.2814 24.3275 54.505 23.9824 53.6423C23.6374 52.7796 23.4648 51.8307 23.4648 50.8386C23.4648 49.8465 23.6374 48.9407 23.9824 48.0349C24.3275 47.1722 24.8451 46.3958 25.5353 45.7488C26.2254 45.1018 27.045 44.5842 28.037 44.196C29.0291 43.8078 30.1937 43.6353 31.4877 43.6353C32.7817 43.6353 33.9464 43.8078 34.9384 44.196C35.9305 44.5842 36.7932 45.1018 37.4402 45.7488C38.1303 46.3958 38.6479 47.1722 38.993 48.0349C39.3381 48.8976 39.5106 49.8465 39.5106 50.8386C39.5106 51.8307 39.3381 52.7365 38.993 53.6423C38.6479 54.505 38.1303 55.2814 37.4402 55.9284C36.7501 56.5754 35.9305 57.093 34.9384 57.4812C33.9464 57.8694 32.7817 58.0419 31.4877 58.0419C30.1937 58.0419 29.0291 57.8694 28.037 57.4812ZM34.8953 55.7127C35.8442 55.1951 36.5344 54.5481 37.0089 53.6854C37.4833 52.8227 37.7421 51.8738 37.7421 50.8817C37.7421 49.8897 37.4833 48.8976 37.0089 48.078C36.5344 47.2154 35.8011 46.5683 34.8953 46.0507C33.9464 45.5331 32.8249 45.2743 31.4877 45.2743C30.1506 45.2743 28.986 45.5331 28.037 46.0507C27.0881 46.5683 26.3979 47.2154 25.9235 48.078C25.449 48.9407 25.1902 49.8897 25.1902 50.8817C25.1902 51.8738 25.449 52.8659 25.9235 53.6854C26.3979 54.5481 27.1312 55.1951 28.037 55.7127C28.986 56.2303 30.1075 56.4891 31.4877 56.4891C32.8249 56.4891 33.9895 56.2303 34.8953 55.7127Z" fill="white"/>
<path d="M53.5289 57.8696L48.6979 52.4347V50.8819H49.6469C50.2507 50.8819 50.7684 50.7956 51.2428 50.5799C51.7604 50.4074 52.1486 50.1055 52.4506 49.6741C52.7525 49.2859 52.8819 48.7683 52.8819 48.1213C52.8819 47.5174 52.7525 46.9998 52.4506 46.6116C52.1486 46.2234 51.7604 45.9215 51.2428 45.7058C50.7252 45.5333 50.2076 45.4039 49.6469 45.4039H43.9963V57.7833H42.271V43.8511H49.6469C50.5527 43.8511 51.4154 44.0236 52.1486 44.3687C52.925 44.7137 53.5289 45.1882 53.9602 45.8352C54.3916 46.4822 54.6504 47.2586 54.6504 48.1213C54.6504 48.8977 54.4779 49.5447 54.1759 50.1486C53.8308 50.7093 53.3995 51.1838 52.7956 51.572C52.2349 51.9171 51.5879 52.1759 50.8115 52.3053L55.6425 57.8264H53.5289V57.8696Z" fill="white"/>
<path d="M68.8414 57.8695L60.0852 51.27V57.8695H58.3599V43.9373H60.0852V50.4936L67.9356 43.9373H70.0491L61.8968 50.7524L71.3431 57.8695H68.8414Z" fill="white"/>
<path d="M74.0605 57.8695V43.9373H81.4364C82.3422 43.9373 83.2049 44.1529 83.9382 44.5411C84.6715 44.9293 85.2753 45.4901 85.7498 46.1802C86.2243 46.8704 86.44 47.6899 86.44 48.5526C86.44 49.4584 86.2243 50.2348 85.7498 50.9681C85.3185 51.6582 84.7146 52.2189 83.9382 52.6072C83.1618 52.9954 82.3422 53.211 81.4364 53.211H79.2797V51.6582H81.4364C82.0403 51.6582 82.5579 51.5288 83.0324 51.27C83.55 51.0112 83.9382 50.6661 84.2401 50.1917C84.5421 49.7172 84.6715 49.1996 84.6715 48.5526C84.6715 47.9487 84.5421 47.388 84.2401 46.9135C83.9382 46.439 83.55 46.0939 83.0324 45.8351C82.5148 45.5763 81.9972 45.4469 81.4364 45.4469H75.7859V57.8263H74.0605V57.8695Z" fill="white"/>
<path d="M89.1577 57.8695V43.9373H90.8831V56.3167H100.373V57.8695H89.1577Z" fill="white"/>
<path d="M117.367 57.8695L115.814 54.7638H106.67L105.117 57.8695H103.133L110.379 43.9373H112.105L119.351 57.8695H117.367ZM111.242 45.6626L107.446 53.211H115.038L111.242 45.6626Z" fill="white"/>
<path d="M124.7 57.4812C123.708 57.093 122.845 56.5754 122.198 55.9284C121.508 55.2814 120.99 54.505 120.645 53.6423C120.3 52.7796 120.127 51.8307 120.127 50.8386C120.127 49.8465 120.3 48.9407 120.645 48.0349C120.99 47.1722 121.508 46.3958 122.198 45.7488C122.888 45.1018 123.708 44.5842 124.7 44.196C125.692 43.8078 126.856 43.6353 128.15 43.6353C129.056 43.6353 129.919 43.7215 130.781 43.894C131.644 44.0666 132.377 44.3254 133.024 44.6705V46.5252C132.464 46.0076 131.774 45.6625 130.911 45.4469C130.048 45.2312 129.099 45.1449 128.15 45.1449C126.813 45.1449 125.649 45.4037 124.7 45.9213C123.751 46.4389 123.061 47.086 122.586 47.9486C122.112 48.8113 121.853 49.7603 121.853 50.7523C121.853 51.7444 122.112 52.7365 122.586 53.556C123.061 54.4187 123.794 55.0657 124.7 55.5833C125.649 56.1009 126.77 56.3597 128.15 56.3597C129.142 56.3597 130.048 56.2735 130.911 56.0578C131.774 55.8421 132.464 55.497 133.024 54.9794V56.8342C132.421 57.1793 131.644 57.4381 130.781 57.6106C129.919 57.7831 129.013 57.9125 128.15 57.9125C126.856 58.0419 125.735 57.8694 124.7 57.4812Z" fill="white"/>
<path d="M135.785 57.8695V43.9373H146.655V45.4901H137.511V50.1485H145.663V51.7013H137.511V56.3598H147V57.9126H135.785V57.8695Z" fill="white"/>
<path d="M37.5693 70.551V63.6064H41.2788C41.7533 63.6064 42.1415 63.6927 42.5297 63.9084C42.9179 64.1241 43.2199 64.3829 43.4355 64.7279C43.6512 65.073 43.7806 65.4612 43.7806 65.9357C43.7806 66.367 43.6512 66.7984 43.4355 67.1434C43.2199 67.4885 42.9179 67.7473 42.5297 67.963C42.1415 68.1786 41.7102 68.2649 41.2788 68.2649H40.2005V67.4885H41.2788C41.5808 67.4885 41.8396 67.4454 42.0984 67.316C42.3572 67.1866 42.5297 67.014 42.7023 66.7552C42.8748 66.4964 42.9179 66.2376 42.9179 65.9357C42.9179 65.6337 42.8317 65.3318 42.7023 65.1161C42.5297 64.9005 42.3572 64.7279 42.0984 64.5554C41.8396 64.426 41.5808 64.3828 41.2788 64.3828H38.4751V70.5941H37.5693V70.551Z" fill="white"/>
<path d="M46.5413 70.5077C46.1531 70.4214 45.808 70.292 45.5061 70.2058C45.2041 70.0764 44.9885 69.947 44.8159 69.8176V68.8686C44.9885 69.0412 45.2472 69.1705 45.5492 69.3431C45.8511 69.5156 46.2393 69.645 46.6275 69.7313C47.0157 69.8176 47.4471 69.9038 47.8784 69.9038C48.6117 69.9038 49.2156 69.8176 49.6469 69.6019C50.0782 69.3862 50.2939 69.1274 50.2939 68.8255C50.2939 68.653 50.2508 68.5235 50.1214 68.3941C49.992 68.2647 49.8194 68.1353 49.6038 68.0491C49.3881 67.9628 49.1724 67.8334 48.8705 67.7471C48.6117 67.6609 48.3098 67.5746 48.0078 67.4883C47.6196 67.3589 47.2745 67.2727 46.8863 67.1433C46.5413 67.0139 46.1962 66.8845 45.8943 66.7119C45.5923 66.5394 45.3335 66.3669 45.161 66.1512C44.9884 65.9355 44.9022 65.6767 44.9022 65.3748C44.9022 65.0297 45.0316 64.7278 45.2904 64.4258C45.5492 64.167 45.9374 63.9082 46.3687 63.7788C46.8432 63.6063 47.3608 63.52 48.0078 63.52C48.4823 63.52 48.8705 63.5632 49.2156 63.6063C49.5606 63.6926 49.8626 63.7788 50.1214 63.9082C50.3802 64.0376 50.639 64.167 50.8547 64.2964V65.1591L50.639 65.0297C50.4664 64.9434 50.2939 64.8572 49.992 64.7278C49.7332 64.5984 49.4312 64.5121 49.0862 64.4258C48.7411 64.3396 48.396 64.2964 48.0078 64.2964C47.5765 64.2964 47.1883 64.3396 46.8432 64.4258C46.4981 64.5121 46.2393 64.6415 46.0668 64.7709C45.8943 64.9003 45.808 65.0728 45.808 65.2454C45.808 65.3748 45.8511 65.5473 45.9805 65.6336C46.1099 65.763 46.2825 65.8493 46.455 65.9787C46.6707 66.0649 46.8863 66.1943 47.1451 66.2806C47.4039 66.3669 47.7059 66.4531 47.9647 66.5394C48.3529 66.6688 48.698 66.7551 49.0862 66.8845C49.4744 67.0139 49.7763 67.1864 50.1214 67.3158C50.4233 67.4883 50.6821 67.704 50.8547 67.9197C51.0272 68.1353 51.1566 68.3941 51.1566 68.7392C51.1566 69.3431 50.8546 69.7744 50.2939 70.1195C49.7332 70.4646 48.9136 70.6371 47.8353 70.6371C47.3608 70.6371 46.9295 70.594 46.5413 70.5077Z" fill="white"/>
<path d="M54.1759 70.6372L52.9681 70.5941V69.7746L54.1759 69.8177C55.0385 69.8608 55.6855 69.8608 56.1169 69.8608C56.5482 69.8608 56.9364 69.8177 57.2384 69.7315C57.5403 69.6452 57.756 69.4726 57.9285 69.2138C58.101 68.955 58.1442 68.61 58.1442 68.1355V67.9198C58.0148 68.0061 57.8422 68.1355 57.6266 68.2218C57.4109 68.308 57.1952 68.3943 56.9364 68.4374C56.6776 68.4806 56.3757 68.5237 56.0306 68.5237C54.866 68.5237 54.0033 68.308 53.4426 67.8767C52.8818 67.4454 52.623 66.7983 52.623 65.9788V63.6064H53.4857V66.0219C53.4857 66.5827 53.7014 67.0572 54.0896 67.316C54.4778 67.6179 55.1248 67.7473 56.0306 67.7473C56.3757 67.7473 56.6776 67.7042 56.9364 67.6179C57.1952 67.5316 57.454 67.4454 57.6266 67.316C57.8422 67.1866 58.0148 67.0572 58.1442 66.9278V63.6064H59.0068V68.1355C59.0068 68.7825 58.8774 69.3001 58.6618 69.6452C58.4461 70.0334 58.101 70.2922 57.6697 70.4216C57.2384 70.5941 56.7207 70.6372 56.1169 70.6372C55.6855 70.6804 55.0817 70.6372 54.1759 70.6372Z" fill="white"/>
<path d="M62.6298 70.3783C62.1554 70.2058 61.724 69.947 61.379 69.6019C61.0339 69.2568 60.7751 68.9117 60.6026 68.4804C60.43 68.0491 60.3438 67.5746 60.3438 67.1001C60.3438 66.5825 60.43 66.1512 60.6026 65.7198C60.7751 65.2885 61.0339 64.9003 61.379 64.5552C61.724 64.2102 62.1554 63.9514 62.6298 63.7788C63.1474 63.6063 63.7082 63.52 64.3552 63.52C64.7865 63.52 65.261 63.5632 65.6923 63.6494C66.1237 63.7357 66.5119 63.8651 66.8138 64.0376V64.9866C66.555 64.7278 66.1668 64.5552 65.7355 64.469C65.3041 64.3827 64.8297 64.2964 64.3552 64.2964C63.665 64.2964 63.1043 64.4258 62.6298 64.6846C62.1554 64.9434 61.8103 65.2885 61.5515 65.7198C61.2927 66.1512 61.2064 66.6257 61.2064 67.1433C61.2064 67.6609 61.3358 68.1353 61.5515 68.5667C61.8103 68.998 62.1554 69.3431 62.6298 69.6019C63.1043 69.8607 63.665 69.9901 64.3552 69.9901C64.8297 69.9901 65.3041 69.947 65.7355 69.8176C66.1668 69.6882 66.5119 69.5156 66.8138 69.3V70.2489C66.5119 70.4214 66.1237 70.5508 65.6923 70.6371C65.261 70.7234 64.8297 70.7665 64.3552 70.7665C63.7082 70.6371 63.1474 70.5508 62.6298 70.3783ZM74.4485 70.5508V67.3589L74.1466 67.4021C73.9309 67.4452 73.6721 67.4452 73.327 67.4883C72.982 67.5315 72.5506 67.5315 72.033 67.5315C71.2566 67.5315 70.6096 67.4883 70.092 67.4452C69.7901 67.4021 69.445 67.4021 69.0136 67.3589V70.5508H68.151V67.3589C67.7196 67.3589 67.2452 67.4021 66.7707 67.4452C66.4687 67.4883 66.1237 67.4883 65.7786 67.5315C65.4335 67.5315 65.0885 67.5746 64.7003 67.5746V66.7982C65.1316 66.7982 65.6923 66.7551 66.4687 66.7119C67.0295 66.6688 67.5471 66.6257 68.151 66.6257V63.6063H69.0136V66.6257C69.445 66.6257 69.8332 66.6688 70.2214 66.7119C70.7821 66.7551 71.386 66.7982 71.9899 66.7982C72.4212 66.7982 72.8094 66.7982 73.1976 66.7551C73.5858 66.7119 73.8446 66.7119 74.1034 66.6688L74.4485 66.6257V63.6063H75.3112V70.594H74.4485V70.5508Z" fill="white"/>
<path d="M78.978 70.3783C78.5035 70.2058 78.0722 69.947 77.7271 69.6019C77.382 69.2568 77.1232 68.9117 76.9507 68.4804C76.7782 68.0491 76.6919 67.5746 76.6919 67.1001C76.6919 66.5825 76.7782 66.1512 76.9507 65.7198C77.1232 65.2885 77.382 64.9003 77.7271 64.5552C78.0722 64.2102 78.5035 63.9514 78.978 63.7788C79.4956 63.6063 80.0563 63.52 80.7033 63.52C81.3503 63.52 81.9111 63.6063 82.4287 63.7788C82.9463 63.9514 83.3345 64.2102 83.6796 64.5552C84.0246 64.9003 84.2834 65.2454 84.456 65.7198C84.6285 66.1512 84.7148 66.6257 84.7148 67.1001C84.7148 67.6177 84.6285 68.0491 84.456 68.4804C84.2834 68.9117 84.0246 69.3 83.6796 69.6019C83.3345 69.947 82.9032 70.2058 82.4287 70.3783C81.9111 70.5508 81.3503 70.6371 80.7033 70.6371C80.0563 70.6371 79.4956 70.5508 78.978 70.3783ZM82.4287 69.4725C82.9032 69.2137 83.2482 68.8686 83.507 68.4373C83.7658 68.0059 83.8521 67.5315 83.8521 67.0139C83.8521 66.4963 83.7227 66.0218 83.507 65.5905C83.2482 65.1591 82.9032 64.814 82.4287 64.5552C81.9542 64.2964 81.3935 64.167 80.7033 64.167C80.0132 64.167 79.4525 64.2964 78.978 64.5552C78.5035 64.814 78.1584 65.1591 77.8996 65.5905C77.6408 66.0218 77.5546 66.4963 77.5546 67.0139C77.5546 67.5315 77.684 68.0059 77.8996 68.4373C78.1584 68.8686 78.5035 69.2137 78.978 69.4725C79.4525 69.7313 80.0132 69.8607 80.7033 69.8607C81.3935 69.8607 81.9542 69.7313 82.4287 69.4725Z" fill="white"/>
<path d="M86.0947 70.551V63.6064H86.9574V69.8177H91.7021V70.5941H86.0947V70.551Z" fill="white"/>
<path d="M94.894 70.3783C94.4195 70.2058 93.9882 69.947 93.6431 69.6019C93.298 69.2568 93.0392 68.9117 92.8667 68.4804C92.6942 68.0491 92.6079 67.5746 92.6079 67.1001C92.6079 66.5825 92.6942 66.1512 92.8667 65.7198C93.0392 65.2885 93.298 64.9003 93.6431 64.5552C93.9882 64.2102 94.4195 63.9514 94.894 63.7788C95.4116 63.6063 95.9723 63.52 96.6193 63.52C97.2664 63.52 97.8271 63.6063 98.3447 63.7788C98.8623 63.9514 99.2505 64.2102 99.5956 64.5552C99.9406 64.9003 100.199 65.2454 100.372 65.7198C100.545 66.1512 100.631 66.6257 100.631 67.1001C100.631 67.6177 100.545 68.0491 100.372 68.4804C100.199 68.9117 99.9406 69.3 99.5956 69.6019C99.2505 69.947 98.8192 70.2058 98.3447 70.3783C97.8271 70.5508 97.2664 70.6371 96.6193 70.6371C95.9723 70.6371 95.4116 70.5508 94.894 70.3783ZM98.3447 69.4725C98.8192 69.2137 99.1642 68.8686 99.423 68.4373C99.6818 68.0059 99.7681 67.5315 99.7681 67.0139C99.7681 66.4963 99.6387 66.0218 99.423 65.5905C99.1642 65.1591 98.8192 64.814 98.3447 64.5552C97.8702 64.2964 97.3095 64.167 96.6193 64.167C95.9292 64.167 95.3685 64.2964 94.894 64.5552C94.4195 64.814 94.0745 65.1591 93.8157 65.5905C93.5568 66.0218 93.4706 66.4963 93.4706 67.0139C93.4706 67.5315 93.6 68.0059 93.8157 68.4373C94.0745 68.8686 94.4195 69.2137 94.894 69.4725C95.3685 69.7313 95.9292 69.8607 96.6193 69.8607C97.3095 69.8607 97.8702 69.7313 98.3447 69.4725Z" fill="white"/>
<path d="M104.081 70.3783C103.607 70.2058 103.176 69.947 102.831 69.6019C102.486 69.2568 102.227 68.9117 102.054 68.4804C101.882 68.0491 101.795 67.5746 101.795 67.1001C101.795 66.5825 101.882 66.1512 102.054 65.7198C102.227 65.2885 102.486 64.9003 102.831 64.5552C103.176 64.2102 103.607 63.9514 104.081 63.7788C104.599 63.6063 105.16 63.52 105.807 63.52C106.238 63.52 106.713 63.5632 107.144 63.6494C107.575 63.7357 107.964 63.8651 108.265 64.0376V64.9866C108.007 64.7278 107.618 64.5552 107.187 64.469C106.756 64.3827 106.281 64.2964 105.807 64.2964C105.117 64.2964 104.556 64.4258 104.081 64.6846C103.607 64.9434 103.262 65.2885 103.003 65.6767C102.744 66.108 102.658 66.5825 102.658 67.1001C102.658 67.6177 102.787 68.0922 103.003 68.5235C103.262 68.9549 103.607 69.2999 104.081 69.5588C104.556 69.8176 105.117 69.947 105.807 69.947C106.497 69.947 107.058 69.8176 107.575 69.5588V67.8334H105.117V67.057H108.438V69.8607C108.265 69.9901 108.05 70.1626 107.791 70.292C107.23 70.594 106.54 70.7665 105.764 70.7665C105.16 70.6371 104.599 70.5508 104.081 70.3783Z" fill="white"/>
<path d="M111.458 70.6372L110.25 70.5941V69.7746L111.458 69.8177C112.32 69.8608 112.967 69.8608 113.399 69.8608C113.83 69.8608 114.218 69.8177 114.52 69.7315C114.822 69.6452 115.038 69.4726 115.21 69.2138C115.383 68.955 115.426 68.61 115.426 68.1355V67.9198C115.297 68.0061 115.124 68.1355 114.908 68.2218C114.693 68.308 114.477 68.3943 114.218 68.4374C113.959 68.4806 113.657 68.5237 113.312 68.5237C112.148 68.5237 111.285 68.308 110.724 67.8767C110.164 67.4454 109.905 66.7983 109.905 65.9788V63.6064H110.767V66.0219C110.767 66.5827 110.983 67.0572 111.371 67.316C111.76 67.6179 112.407 67.7473 113.312 67.7473C113.657 67.7473 113.959 67.7042 114.218 67.6179C114.477 67.5316 114.736 67.4454 114.908 67.316C115.124 67.1866 115.297 67.0572 115.426 66.9278V63.6064H116.289V68.1355C116.289 68.7825 116.159 69.3001 115.944 69.6452C115.728 70.0334 115.383 70.2922 114.951 70.4216C114.52 70.5941 114.002 70.6372 113.399 70.6372C112.967 70.6804 112.32 70.6372 111.458 70.6372Z" fill="white"/>
<path d="M67.607 3.00335C67.1757 1.4074 65.3641 -0.231684 63.725 0.0271184C62.0859 0.285921 61.6546 2.35634 61.7408 3.99543C61.3526 9.68909 64.5014 13.4849 66.1836 13.4849L66.3562 15.1671H66.5718L66.313 13.4849C67.9952 13.1829 69.85 8.30881 67.607 3.00335Z" fill="url(#paint0_linear)"/>
<path d="M67.1325 15.2965L66.8305 15.2102L65.4934 16.3748C64.3719 15.1671 59.2821 16.2023 55.9608 20.9039C54.8824 22.1116 54.408 24.5271 55.5294 25.778C56.6509 26.9857 58.592 26.2956 59.9291 25.3466C64.9758 22.6292 66.4423 17.9276 65.5365 16.5042L67.1325 15.2965Z" fill="url(#paint1_linear)"/>
<path d="M74.5948 4.68548C74.1635 3.08953 72.3519 1.45044 70.7128 1.70925C69.0737 1.96805 68.6424 4.03847 68.7286 5.67756C68.3404 11.3712 71.4892 15.167 73.1714 15.167L73.344 16.8492H73.5596L73.3008 15.167C74.983 14.8651 76.7947 9.99094 74.5948 4.68548Z" fill="url(#paint2_linear)"/>
<path d="M74.0773 16.9788L73.7753 16.8926L72.4382 18.0572C71.3167 16.8494 66.2269 17.8847 62.9056 22.5862C61.8273 23.794 61.3528 26.2095 62.4743 27.4604C63.5958 28.6681 65.5368 27.978 66.8739 27.029C71.9206 24.3116 73.3871 19.61 72.4813 18.1866L74.0773 16.9788Z" fill="url(#paint3_linear)"/>
<path d="M81.5392 5.97967C81.1078 4.38372 79.2962 2.74463 77.6571 3.00344C76.018 3.26224 75.5867 5.33266 75.673 6.97175C75.2848 12.6654 78.4335 16.4612 80.1157 16.4612L80.2883 18.1434H80.504L80.2452 16.4612C81.8842 16.2024 83.739 11.2851 81.5392 5.97967Z" fill="url(#paint4_linear)"/>
<path d="M81.0216 18.2728L80.7197 18.1865L79.3825 19.3511C78.261 18.1434 73.1713 19.1786 69.8499 23.8802C68.7716 25.0879 68.2971 27.5034 69.4186 28.7543C70.5401 29.9621 72.4811 29.2719 73.8183 28.323C78.8649 25.6055 80.3315 20.904 79.4257 19.4805L81.0216 18.2728Z" fill="url(#paint5_linear)"/>
<path d="M87.7075 6.28157C87.1468 4.72875 85.292 3.17593 83.653 3.521C82.057 3.86607 81.7119 5.9365 81.8845 7.57558C81.7982 13.3124 85.2058 16.8925 86.8449 16.8062L87.1037 18.4453H87.3193L86.9743 16.8062C88.6565 16.4611 90.2093 11.4576 87.7075 6.28157Z" fill="url(#paint6_linear)"/>
<path d="M87.8799 18.5746L87.578 18.5315L86.3271 19.7392C85.1625 18.5746 80.1158 19.9118 77.0965 24.829C76.0613 26.123 75.7593 28.5385 76.9239 29.7031C78.0885 30.8678 79.9864 30.0482 81.3236 29.013C86.1977 26.0368 87.4054 21.2489 86.4565 19.8686L87.8799 18.5746Z" fill="url(#paint7_linear)"/>
<path d="M56.3921 11.6301C56.3921 11.6301 69.2891 16.7631 79.3824 18.3159C90.856 20.0844 97.7574 18.4884 97.7574 18.4884C97.5849 18.0571 97.1535 17.7983 96.7222 17.8845C94.3498 18.3159 88.9581 19.0923 79.5981 17.712C68.2539 16.0298 56.3921 11.6301 56.3921 11.6301Z" fill="#009900"/>
<path d="M54.4081 5.80705C60.835 7.31673 64.1132 12.3203 63.2505 14.0456C62.431 15.7278 56.5648 16.2886 51.3456 11.932C49.7928 10.8968 48.1968 9.08522 49.0164 7.403C49.8791 5.72078 52.6396 5.16004 54.4081 5.80705Z" fill="url(#paint8_linear)"/>
<defs>
<linearGradient id="paint0_linear" x1="61.714" y1="7.56013" x2="68.6488" y2="7.56013" gradientUnits="userSpaceOnUse">
<stop offset="0.0506992" stop-color="#B6E800"/>
<stop offset="1" stop-color="#009900"/>
</linearGradient>
<linearGradient id="paint1_linear" x1="54.8997" y1="20.797" x2="67.1143" y2="20.797" gradientUnits="userSpaceOnUse">
<stop offset="0.0506992" stop-color="#B6E800"/>
<stop offset="1" stop-color="#009900"/>
</linearGradient>
<linearGradient id="paint2_linear" x1="68.6825" y1="9.25844" x2="75.6173" y2="9.25844" gradientUnits="userSpaceOnUse">
<stop offset="0.0506992" stop-color="#B6E800"/>
<stop offset="1" stop-color="#009900"/>
</linearGradient>
<linearGradient id="paint3_linear" x1="61.8683" y1="22.4955" x2="74.083" y2="22.4955" gradientUnits="userSpaceOnUse">
<stop offset="0.0506992" stop-color="#B6E800"/>
<stop offset="1" stop-color="#009900"/>
</linearGradient>
<linearGradient id="paint4_linear" x1="75.6151" y1="10.5726" x2="82.5499" y2="10.5726" gradientUnits="userSpaceOnUse">
<stop offset="0.0506992" stop-color="#B6E800"/>
<stop offset="1" stop-color="#009900"/>
</linearGradient>
<linearGradient id="paint5_linear" x1="68.8009" y1="23.8094" x2="81.0156" y2="23.8094" gradientUnits="userSpaceOnUse">
<stop offset="0.0506992" stop-color="#B6E800"/>
<stop offset="1" stop-color="#009900"/>
</linearGradient>
<linearGradient id="paint6_linear" x1="81.8675" y1="10.9775" x2="89.0327" y2="10.9775" gradientUnits="userSpaceOnUse">
<stop offset="0.0506992" stop-color="#B6E800"/>
<stop offset="1" stop-color="#009900"/>
</linearGradient>
<linearGradient id="paint7_linear" x1="76.1702" y1="24.3853" x2="87.8924" y2="24.3853" gradientUnits="userSpaceOnUse">
<stop offset="0.0506992" stop-color="#B6E800"/>
<stop offset="1" stop-color="#009900"/>
</linearGradient>
<linearGradient id="paint8_linear" x1="48.7972" y1="10.4191" x2="63.3758" y2="10.4191" gradientUnits="userSpaceOnUse">
<stop offset="0.0506992" stop-color="#B6E800"/>
<stop offset="1" stop-color="#009900"/>
</linearGradient>
</defs>
</svg>
