<svg width="147" height="70" viewBox="0 0 147 70" fill="none" xmlns="http://www.w3.org/2000/svg">
<path d="M13.4577 57.2426L11.2148 52.9333L8.97183 57.2426H7.24647L0 43.4613H1.98414L8.10915 55.536L10.309 51.184L6.2544 43.4613H8.23855L11.2579 49.392L14.2773 43.4613H16.2614L12.2069 51.184L14.4067 55.536L20.5317 43.4613H22.5158L15.2694 57.2426H13.4577Z" fill="#005900"/>
<path d="M28.037 56.8587C27.045 56.4747 26.1823 55.9627 25.5353 55.3227C24.8451 54.6827 24.3275 53.9147 23.9824 53.0614C23.6374 52.208 23.4648 51.2694 23.4648 50.288C23.4648 49.3067 23.6374 48.4107 23.9824 47.5147C24.3275 46.6614 24.8451 45.8934 25.5353 45.2534C26.2254 44.6134 27.045 44.1014 28.037 43.7174C29.0291 43.3334 30.1937 43.1627 31.4877 43.1627C32.7817 43.1627 33.9464 43.3334 34.9384 43.7174C35.9305 44.1014 36.7932 44.6134 37.4402 45.2534C38.1303 45.8934 38.6479 46.6614 38.993 47.5147C39.3381 48.368 39.5106 49.3067 39.5106 50.288C39.5106 51.2694 39.3381 52.1654 38.993 53.0614C38.6479 53.9147 38.1303 54.6827 37.4402 55.3227C36.7501 55.9627 35.9305 56.4747 34.9384 56.8587C33.9464 57.2427 32.7817 57.4134 31.4877 57.4134C30.1937 57.4134 29.0291 57.2427 28.037 56.8587ZM34.8953 55.1094C35.8442 54.5974 36.5344 53.9574 37.0089 53.104C37.4833 52.2507 37.7421 51.312 37.7421 50.3307C37.7421 49.3494 37.4833 48.368 37.0089 47.5574C36.5344 46.704 35.8011 46.064 34.8953 45.552C33.9464 45.04 32.8249 44.784 31.4877 44.784C30.1506 44.784 28.986 45.04 28.037 45.552C27.0881 46.064 26.3979 46.704 25.9235 47.5574C25.449 48.4107 25.1902 49.3494 25.1902 50.3307C25.1902 51.312 25.449 52.2934 25.9235 53.104C26.3979 53.9574 27.1312 54.5974 28.037 55.1094C28.986 55.6214 30.1075 55.8774 31.4877 55.8774C32.8249 55.8774 33.9895 55.6214 34.8953 55.1094Z" fill="#005900"/>
<path d="M53.5289 57.2426L48.6979 51.8666V50.3306H49.6469C50.2507 50.3306 50.7684 50.2453 51.2428 50.032C51.7604 49.8613 52.1486 49.5626 52.4506 49.136C52.7525 48.752 52.8819 48.24 52.8819 47.6C52.8819 47.0026 52.7525 46.4906 52.4506 46.1066C52.1486 45.7226 51.7604 45.424 51.2428 45.2106C50.7252 45.04 50.2076 44.912 49.6469 44.912H43.9963V57.1573H42.271V43.376H49.6469C50.5527 43.376 51.4154 43.5466 52.1486 43.888C52.925 44.2293 53.5289 44.6986 53.9602 45.3386C54.3916 45.9786 54.6504 46.7466 54.6504 47.6C54.6504 48.368 54.4779 49.008 54.1759 49.6053C53.8308 50.16 53.3995 50.6293 52.7956 51.0133C52.2349 51.3546 51.5879 51.6106 50.8115 51.7386L55.6425 57.1999H53.5289V57.2426Z" fill="#005900"/>
<path d="M68.8414 57.2426L60.0852 50.7146V57.2426H58.3599V43.4613H60.0852V49.9466L67.9356 43.4613H70.0491L61.8968 50.2026L71.3431 57.2426H68.8414Z" fill="#005900"/>
<path d="M74.0605 57.2426V43.4613H81.4364C82.3422 43.4613 83.2049 43.6746 83.9382 44.0586C84.6715 44.4426 85.2753 44.9973 85.7498 45.68C86.2243 46.3626 86.44 47.1733 86.44 48.0266C86.44 48.9226 86.2243 49.6906 85.7498 50.416C85.3185 51.0986 84.7146 51.6533 83.9382 52.0373C83.1618 52.4213 82.3422 52.6346 81.4364 52.6346H79.2797V51.0986H81.4364C82.0403 51.0986 82.5579 50.9706 83.0324 50.7146C83.55 50.4586 83.9382 50.1173 84.2401 49.648C84.5421 49.1786 84.6715 48.6666 84.6715 48.0266C84.6715 47.4293 84.5421 46.8746 84.2401 46.4053C83.9382 45.936 83.55 45.5946 83.0324 45.3386C82.5148 45.0826 81.9972 44.9546 81.4364 44.9546H75.7859V57.1999H74.0605V57.2426Z" fill="#005900"/>
<path d="M89.1577 57.2426V43.4613H90.8831V55.7066H100.373V57.2426H89.1577Z" fill="#005900"/>
<path d="M117.367 57.2426L115.814 54.1706H106.67L105.117 57.2426H103.133L110.379 43.4613H112.105L119.351 57.2426H117.367ZM111.242 45.168L107.446 52.6346H115.038L111.242 45.168Z" fill="#005900"/>
<path d="M124.7 56.8587C123.708 56.4747 122.845 55.9627 122.198 55.3227C121.508 54.6827 120.99 53.9147 120.645 53.0614C120.3 52.208 120.127 51.2694 120.127 50.288C120.127 49.3067 120.3 48.4107 120.645 47.5147C120.99 46.6614 121.508 45.8934 122.198 45.2534C122.888 44.6134 123.708 44.1014 124.7 43.7174C125.692 43.3334 126.856 43.1627 128.15 43.1627C129.056 43.1627 129.919 43.248 130.781 43.4187C131.644 43.5894 132.377 43.8454 133.024 44.1867V46.0214C132.464 45.5094 131.774 45.168 130.911 44.9547C130.048 44.7414 129.099 44.6561 128.15 44.6561C126.813 44.6561 125.649 44.912 124.7 45.424C123.751 45.936 123.061 46.576 122.586 47.4294C122.112 48.2827 121.853 49.2214 121.853 50.2027C121.853 51.184 122.112 52.1654 122.586 52.976C123.061 53.8294 123.794 54.4694 124.7 54.9814C125.649 55.4934 126.77 55.7494 128.15 55.7494C129.142 55.7494 130.048 55.664 130.911 55.4507C131.774 55.2374 132.464 54.896 133.024 54.384V56.2187C132.421 56.56 131.644 56.816 130.781 56.9867C129.919 57.1574 129.013 57.2853 128.15 57.2853C126.856 57.4133 125.735 57.2427 124.7 56.8587Z" fill="#005900"/>
<path d="M135.785 57.2426V43.4613H146.655V44.9973H137.511V49.6053H145.663V51.1413H137.511V55.7493H147V57.2853H135.785V57.2426Z" fill="#005900"/>
<path d="M37.5693 69.7877V62.9183H41.2788C41.7533 62.9183 42.1415 63.0037 42.5297 63.217C42.9179 63.4303 43.2199 63.6863 43.4355 64.0277C43.6512 64.369 43.7806 64.753 43.7806 65.2223C43.7806 65.649 43.6512 66.0757 43.4355 66.417C43.2199 66.7583 42.9179 67.0143 42.5297 67.2277C42.1415 67.441 41.7102 67.5263 41.2788 67.5263H40.2005V66.7583H41.2788C41.5808 66.7583 41.8396 66.7157 42.0984 66.5877C42.3572 66.4597 42.5297 66.289 42.7023 66.033C42.8748 65.777 42.9179 65.521 42.9179 65.2223C42.9179 64.9237 42.8317 64.625 42.7023 64.4117C42.5297 64.1983 42.3572 64.0277 42.0984 63.857C41.8396 63.729 41.5808 63.6863 41.2788 63.6863H38.4751V69.8303H37.5693V69.7877Z" fill="#005900"/>
<path d="M46.5413 69.744C46.1531 69.6587 45.808 69.5307 45.5061 69.4454C45.2041 69.3174 44.9885 69.1894 44.8159 69.0614V68.1227C44.9885 68.2934 45.2472 68.4214 45.5492 68.592C45.8511 68.7627 46.2393 68.8907 46.6275 68.976C47.0157 69.0614 47.4471 69.1467 47.8784 69.1467C48.6117 69.1467 49.2156 69.0614 49.6469 68.848C50.0782 68.6347 50.2939 68.3787 50.2939 68.08C50.2939 67.9094 50.2508 67.7814 50.1214 67.6534C49.992 67.5254 49.8194 67.3974 49.6038 67.312C49.3881 67.2267 49.1724 67.0987 48.8705 67.0134C48.6117 66.928 48.3098 66.8427 48.0078 66.7574C47.6196 66.6294 47.2745 66.544 46.8863 66.416C46.5413 66.288 46.1962 66.16 45.8943 65.9894C45.5923 65.8187 45.3335 65.648 45.161 65.4347C44.9884 65.2214 44.9022 64.9654 44.9022 64.6667C44.9022 64.3254 45.0316 64.0267 45.2904 63.728C45.5492 63.472 45.9374 63.216 46.3687 63.088C46.8432 62.9174 47.3608 62.832 48.0078 62.832C48.4823 62.832 48.8705 62.8747 49.2156 62.9174C49.5606 63.0027 49.8626 63.088 50.1214 63.216C50.3802 63.344 50.639 63.472 50.8547 63.6V64.4534L50.639 64.3254C50.4664 64.24 50.2939 64.1547 49.992 64.0267C49.7332 63.8987 49.4312 63.8134 49.0862 63.728C48.7411 63.6427 48.396 63.6 48.0078 63.6C47.5765 63.6 47.1883 63.6427 46.8432 63.728C46.4981 63.8134 46.2393 63.9414 46.0668 64.0694C45.8943 64.1974 45.808 64.368 45.808 64.5387C45.808 64.6667 45.8511 64.8374 45.9805 64.9227C46.1099 65.0507 46.2825 65.136 46.455 65.264C46.6707 65.3494 46.8863 65.4774 47.1451 65.5627C47.4039 65.648 47.7059 65.7334 47.9647 65.8187C48.3529 65.9467 48.698 66.032 49.0862 66.16C49.4744 66.288 49.7763 66.4587 50.1214 66.5867C50.4233 66.7574 50.6821 66.9707 50.8547 67.184C51.0272 67.3974 51.1566 67.6534 51.1566 67.9947C51.1566 68.592 50.8546 69.0187 50.2939 69.36C49.7332 69.7014 48.9136 69.872 47.8353 69.872C47.3608 69.872 46.9295 69.8294 46.5413 69.744Z" fill="#005900"/>
<path d="M54.1759 69.873L52.9681 69.8303V69.0197L54.1759 69.0623C55.0385 69.105 55.6855 69.105 56.1169 69.105C56.5482 69.105 56.9364 69.0623 57.2384 68.977C57.5403 68.8917 57.756 68.721 57.9285 68.465C58.101 68.209 58.1442 67.8677 58.1442 67.3983V67.185C58.0148 67.2703 57.8422 67.3983 57.6266 67.4837C57.4109 67.569 57.1952 67.6543 56.9364 67.697C56.6776 67.7397 56.3757 67.7823 56.0306 67.7823C54.866 67.7823 54.0033 67.569 53.4426 67.1423C52.8818 66.7157 52.623 66.0757 52.623 65.265V62.9183H53.4857V65.3077C53.4857 65.8623 53.7014 66.3317 54.0896 66.5877C54.4778 66.8863 55.1248 67.0143 56.0306 67.0143C56.3757 67.0143 56.6776 66.9717 56.9364 66.8863C57.1952 66.801 57.454 66.7157 57.6266 66.5877C57.8422 66.4597 58.0148 66.3317 58.1442 66.2037V62.9183H59.0068V67.3983C59.0068 68.0383 58.8774 68.5503 58.6618 68.8917C58.4461 69.2757 58.101 69.5317 57.6697 69.6596C57.2384 69.8303 56.7207 69.873 56.1169 69.873C55.6855 69.9156 55.0817 69.873 54.1759 69.873Z" fill="#005900"/>
<path d="M62.6298 69.616C62.1554 69.4454 61.724 69.1894 61.379 68.848C61.0339 68.5067 60.7751 68.1654 60.6026 67.7387C60.43 67.312 60.3438 66.8427 60.3438 66.3734C60.3438 65.8614 60.43 65.4347 60.6026 65.008C60.7751 64.5814 61.0339 64.1974 61.379 63.856C61.724 63.5147 62.1554 63.2587 62.6298 63.088C63.1474 62.9174 63.7082 62.832 64.3552 62.832C64.7865 62.832 65.261 62.8747 65.6923 62.96C66.1237 63.0454 66.5119 63.1734 66.8138 63.344V64.2827C66.555 64.0267 66.1668 63.856 65.7355 63.7707C65.3041 63.6854 64.8297 63.6 64.3552 63.6C63.665 63.6 63.1043 63.728 62.6298 63.984C62.1554 64.24 61.8103 64.5814 61.5515 65.008C61.2927 65.4347 61.2064 65.904 61.2064 66.416C61.2064 66.928 61.3358 67.3974 61.5515 67.824C61.8103 68.2507 62.1554 68.592 62.6298 68.848C63.1043 69.104 63.665 69.232 64.3552 69.232C64.8297 69.232 65.3041 69.1894 65.7355 69.0614C66.1668 68.9334 66.5119 68.7627 66.8138 68.5494V69.488C66.5119 69.6587 66.1237 69.7867 65.6923 69.872C65.261 69.9574 64.8297 70 64.3552 70C63.7082 69.872 63.1474 69.7867 62.6298 69.616ZM74.4485 69.7867V66.6294L74.1466 66.672C73.9309 66.7147 73.6721 66.7147 73.327 66.7574C72.982 66.8 72.5506 66.8 72.033 66.8C71.2566 66.8 70.6096 66.7574 70.092 66.7147C69.7901 66.672 69.445 66.672 69.0136 66.6294V69.7867H68.151V66.6294C67.7196 66.6294 67.2452 66.672 66.7707 66.7147C66.4687 66.7574 66.1237 66.7574 65.7786 66.8C65.4335 66.8 65.0885 66.8427 64.7003 66.8427V66.0747C65.1316 66.0747 65.6923 66.032 66.4687 65.9894C67.0295 65.9467 67.5471 65.904 68.151 65.904V62.9174H69.0136V65.904C69.445 65.904 69.8332 65.9467 70.2214 65.9894C70.7821 66.032 71.386 66.0747 71.9899 66.0747C72.4212 66.0747 72.8094 66.0747 73.1976 66.032C73.5858 65.9894 73.8446 65.9894 74.1034 65.9467L74.4485 65.904V62.9174H75.3112V69.8294H74.4485V69.7867Z" fill="#005900"/>
<path d="M78.978 69.616C78.5035 69.4454 78.0722 69.1894 77.7271 68.848C77.382 68.5067 77.1232 68.1654 76.9507 67.7387C76.7782 67.312 76.6919 66.8427 76.6919 66.3734C76.6919 65.8614 76.7782 65.4347 76.9507 65.008C77.1232 64.5814 77.382 64.1974 77.7271 63.856C78.0722 63.5147 78.5035 63.2587 78.978 63.088C79.4956 62.9174 80.0563 62.832 80.7033 62.832C81.3503 62.832 81.9111 62.9174 82.4287 63.088C82.9463 63.2587 83.3345 63.5147 83.6796 63.856C84.0246 64.1974 84.2834 64.5387 84.456 65.008C84.6285 65.4347 84.7148 65.904 84.7148 66.3734C84.7148 66.8854 84.6285 67.312 84.456 67.7387C84.2834 68.1654 84.0246 68.5494 83.6796 68.848C83.3345 69.1894 82.9032 69.4454 82.4287 69.616C81.9111 69.7867 81.3503 69.872 80.7033 69.872C80.0563 69.872 79.4956 69.7867 78.978 69.616ZM82.4287 68.72C82.9032 68.464 83.2482 68.1227 83.507 67.696C83.7658 67.2694 83.8521 66.8 83.8521 66.288C83.8521 65.776 83.7227 65.3067 83.507 64.88C83.2482 64.4534 82.9032 64.112 82.4287 63.856C81.9542 63.6 81.3935 63.472 80.7033 63.472C80.0132 63.472 79.4525 63.6 78.978 63.856C78.5035 64.112 78.1584 64.4534 77.8996 64.88C77.6408 65.3067 77.5546 65.776 77.5546 66.288C77.5546 66.8 77.684 67.2694 77.8996 67.696C78.1584 68.1227 78.5035 68.464 78.978 68.72C79.4525 68.976 80.0132 69.104 80.7033 69.104C81.3935 69.104 81.9542 68.976 82.4287 68.72Z" fill="#005900"/>
<path d="M86.0947 69.7877V62.9183H86.9574V69.0623H91.7021V69.8303H86.0947V69.7877Z" fill="#005900"/>
<path d="M94.894 69.616C94.4195 69.4454 93.9882 69.1894 93.6431 68.848C93.298 68.5067 93.0392 68.1654 92.8667 67.7387C92.6942 67.312 92.6079 66.8427 92.6079 66.3734C92.6079 65.8614 92.6942 65.4347 92.8667 65.008C93.0392 64.5814 93.298 64.1974 93.6431 63.856C93.9882 63.5147 94.4195 63.2587 94.894 63.088C95.4116 62.9174 95.9723 62.832 96.6193 62.832C97.2664 62.832 97.8271 62.9174 98.3447 63.088C98.8623 63.2587 99.2505 63.5147 99.5956 63.856C99.9406 64.1974 100.199 64.5387 100.372 65.008C100.545 65.4347 100.631 65.904 100.631 66.3734C100.631 66.8854 100.545 67.312 100.372 67.7387C100.199 68.1654 99.9406 68.5494 99.5956 68.848C99.2505 69.1894 98.8192 69.4454 98.3447 69.616C97.8271 69.7867 97.2664 69.872 96.6193 69.872C95.9723 69.872 95.4116 69.7867 94.894 69.616ZM98.3447 68.72C98.8192 68.464 99.1642 68.1227 99.423 67.696C99.6818 67.2694 99.7681 66.8 99.7681 66.288C99.7681 65.776 99.6387 65.3067 99.423 64.88C99.1642 64.4534 98.8192 64.112 98.3447 63.856C97.8702 63.6 97.3095 63.472 96.6193 63.472C95.9292 63.472 95.3685 63.6 94.894 63.856C94.4195 64.112 94.0745 64.4534 93.8157 64.88C93.5568 65.3067 93.4706 65.776 93.4706 66.288C93.4706 66.8 93.6 67.2694 93.8157 67.696C94.0745 68.1227 94.4195 68.464 94.894 68.72C95.3685 68.976 95.9292 69.104 96.6193 69.104C97.3095 69.104 97.8702 68.976 98.3447 68.72Z" fill="#005900"/>
<path d="M104.081 69.616C103.607 69.4454 103.176 69.1894 102.831 68.848C102.486 68.5067 102.227 68.1654 102.054 67.7387C101.882 67.312 101.795 66.8427 101.795 66.3734C101.795 65.8614 101.882 65.4347 102.054 65.008C102.227 64.5814 102.486 64.1974 102.831 63.856C103.176 63.5147 103.607 63.2587 104.081 63.088C104.599 62.9174 105.16 62.832 105.807 62.832C106.238 62.832 106.713 62.8747 107.144 62.96C107.575 63.0454 107.964 63.1734 108.265 63.344V64.2827C108.007 64.0267 107.618 63.856 107.187 63.7707C106.756 63.6854 106.281 63.6 105.807 63.6C105.117 63.6 104.556 63.728 104.081 63.984C103.607 64.24 103.262 64.5814 103.003 64.9654C102.744 65.392 102.658 65.8614 102.658 66.3734C102.658 66.8854 102.787 67.3547 103.003 67.7814C103.262 68.208 103.607 68.5494 104.081 68.8054C104.556 69.0614 105.117 69.1894 105.807 69.1894C106.497 69.1894 107.058 69.0614 107.575 68.8054V67.0987H105.117V66.3307H108.438V69.104C108.265 69.232 108.05 69.4027 107.791 69.5307C107.23 69.8294 106.54 70 105.764 70C105.16 69.872 104.599 69.7867 104.081 69.616Z" fill="#005900"/>
<path d="M111.458 69.873L110.25 69.8303V69.0197L111.458 69.0623C112.32 69.105 112.967 69.105 113.399 69.105C113.83 69.105 114.218 69.0623 114.52 68.977C114.822 68.8917 115.038 68.721 115.21 68.465C115.383 68.209 115.426 67.8677 115.426 67.3983V67.185C115.297 67.2703 115.124 67.3983 114.908 67.4837C114.693 67.569 114.477 67.6543 114.218 67.697C113.959 67.7397 113.657 67.7823 113.312 67.7823C112.148 67.7823 111.285 67.569 110.724 67.1423C110.164 66.7157 109.905 66.0757 109.905 65.265V62.9183H110.767V65.3077C110.767 65.8623 110.983 66.3317 111.371 66.5877C111.76 66.8863 112.407 67.0143 113.312 67.0143C113.657 67.0143 113.959 66.9717 114.218 66.8863C114.477 66.801 114.736 66.7157 114.908 66.5877C115.124 66.4597 115.297 66.3317 115.426 66.2037V62.9183H116.289V67.3983C116.289 68.0383 116.159 68.5503 115.944 68.8917C115.728 69.2757 115.383 69.5317 114.951 69.6596C114.52 69.8303 114.002 69.873 113.399 69.873C112.967 69.9156 112.32 69.873 111.458 69.873Z" fill="#005900"/>
<path d="M67.607 2.97082C67.1757 1.39215 65.3641 -0.229175 63.725 0.0268246C62.0859 0.282824 61.6546 2.33082 61.7408 3.95215C61.3526 9.58414 64.5014 13.3388 66.1836 13.3388L66.3562 15.0028H66.5718L66.313 13.3388C67.9952 13.0401 69.85 8.21881 67.607 2.97082Z" fill="url(#paint0_linear)"/>
<path d="M67.1325 15.1307L66.8305 15.0454L65.4934 16.1974C64.3719 15.0027 59.2821 16.0267 55.9608 20.6774C54.8824 21.8721 54.408 24.2614 55.5294 25.4987C56.6509 26.6934 58.592 26.0107 59.9291 25.072C64.9758 22.3841 66.4423 17.7334 65.5365 16.3254L67.1325 15.1307Z" fill="url(#paint1_linear)"/>
<path d="M74.5948 4.63476C74.1635 3.05609 72.3519 1.43477 70.7128 1.69077C69.0737 1.94676 68.6424 3.99476 68.7286 5.61609C68.3404 11.2481 71.4892 15.0027 73.1714 15.0027L73.344 16.6667H73.5596L73.3008 15.0027C74.983 14.7041 76.7947 9.88275 74.5948 4.63476Z" fill="url(#paint2_linear)"/>
<path d="M74.0773 16.7948L73.7753 16.7095L72.4382 17.8615C71.3167 16.6668 66.2269 17.6908 62.9056 22.3415C61.8273 23.5361 61.3528 25.9255 62.4743 27.1628C63.5958 28.3575 65.5368 27.6748 66.8739 26.7361C71.9206 24.0481 73.3871 19.3975 72.4813 17.9895L74.0773 16.7948Z" fill="url(#paint3_linear)"/>
<path d="M81.5392 5.91479C81.1078 4.33612 79.2962 2.71479 77.6571 2.97079C76.018 3.22679 75.5867 5.27479 75.673 6.89612C75.2848 12.5281 78.4335 16.2828 80.1157 16.2828L80.2883 17.9468H80.504L80.2452 16.2828C81.8842 16.0268 83.739 11.1628 81.5392 5.91479Z" fill="url(#paint4_linear)"/>
<path d="M81.0216 18.0748L80.7197 17.9895L79.3825 19.1415C78.261 17.9468 73.1713 18.9708 69.8499 23.6215C68.7716 24.8161 68.2971 27.2055 69.4186 28.4428C70.5401 29.6375 72.4811 28.9548 73.8183 28.0161C78.8649 25.3282 80.3315 20.6775 79.4257 19.2695L81.0216 18.0748Z" fill="url(#paint5_linear)"/>
<path d="M87.7075 6.21354C87.1468 4.67754 85.292 3.14154 83.653 3.48288C82.057 3.82421 81.7119 5.87221 81.8845 7.49354C81.7982 13.1682 85.2058 16.7095 86.8449 16.6242L87.1037 18.2455H87.3193L86.9743 16.6242C88.6565 16.2829 90.2093 11.3335 87.7075 6.21354Z" fill="url(#paint6_linear)"/>
<path d="M87.8799 18.3735L87.578 18.3308L86.3271 19.5255C85.1625 18.3735 80.1158 19.6961 77.0965 24.5601C76.0613 25.8401 75.7593 28.2295 76.9239 29.3815C78.0885 30.5335 79.9864 29.7228 81.3236 28.6988C86.1977 25.7548 87.4054 21.0188 86.4565 19.6535L87.8799 18.3735Z" fill="url(#paint7_linear)"/>
<path d="M56.3921 11.5042C56.3921 11.5042 69.2891 16.5815 79.3824 18.1175C90.856 19.8668 97.7574 18.2881 97.7574 18.2881C97.5849 17.8615 97.1535 17.6055 96.7222 17.6908C94.3498 18.1175 88.9581 18.8855 79.5981 17.5201C68.2539 15.8561 56.3921 11.5042 56.3921 11.5042Z" fill="#009900"/>
<path d="M54.4081 5.74416C60.835 7.23749 64.1132 12.1868 63.2505 13.8935C62.431 15.5575 56.5648 16.1121 51.3456 11.8028C49.7928 10.7788 48.1968 8.98682 49.0164 7.32282C49.8791 5.65882 52.6396 5.10416 54.4081 5.74416Z" fill="url(#paint8_linear)"/>
<defs>
<linearGradient id="paint0_linear" x1="61.714" y1="7.47824" x2="68.6488" y2="7.47824" gradientUnits="userSpaceOnUse">
<stop offset="0.0506992" stop-color="#B6E800"/>
<stop offset="1" stop-color="#009900"/>
</linearGradient>
<linearGradient id="paint1_linear" x1="54.8997" y1="20.5717" x2="67.1143" y2="20.5717" gradientUnits="userSpaceOnUse">
<stop offset="0.0506992" stop-color="#B6E800"/>
<stop offset="1" stop-color="#009900"/>
</linearGradient>
<linearGradient id="paint2_linear" x1="68.6825" y1="9.15819" x2="75.6173" y2="9.15819" gradientUnits="userSpaceOnUse">
<stop offset="0.0506992" stop-color="#B6E800"/>
<stop offset="1" stop-color="#009900"/>
</linearGradient>
<linearGradient id="paint3_linear" x1="61.8683" y1="22.2517" x2="74.083" y2="22.2517" gradientUnits="userSpaceOnUse">
<stop offset="0.0506992" stop-color="#B6E800"/>
<stop offset="1" stop-color="#009900"/>
</linearGradient>
<linearGradient id="paint4_linear" x1="75.6151" y1="10.458" x2="82.5499" y2="10.458" gradientUnits="userSpaceOnUse">
<stop offset="0.0506992" stop-color="#B6E800"/>
<stop offset="1" stop-color="#009900"/>
</linearGradient>
<linearGradient id="paint5_linear" x1="68.8009" y1="23.5515" x2="81.0156" y2="23.5515" gradientUnits="userSpaceOnUse">
<stop offset="0.0506992" stop-color="#B6E800"/>
<stop offset="1" stop-color="#009900"/>
</linearGradient>
<linearGradient id="paint6_linear" x1="81.8675" y1="10.8586" x2="89.0327" y2="10.8586" gradientUnits="userSpaceOnUse">
<stop offset="0.0506992" stop-color="#B6E800"/>
<stop offset="1" stop-color="#009900"/>
</linearGradient>
<linearGradient id="paint7_linear" x1="76.1702" y1="24.1212" x2="87.8924" y2="24.1212" gradientUnits="userSpaceOnUse">
<stop offset="0.0506992" stop-color="#B6E800"/>
<stop offset="1" stop-color="#009900"/>
</linearGradient>
<linearGradient id="paint8_linear" x1="48.7972" y1="10.3063" x2="63.3758" y2="10.3063" gradientUnits="userSpaceOnUse">
<stop offset="0.0506992" stop-color="#B6E800"/>
<stop offset="1" stop-color="#009900"/>
</linearGradient>
</defs>
</svg>
