<svg width="140" height="140" viewBox="0 0 140 140" fill="none" xmlns="http://www.w3.org/2000/svg">
<g filter="url(#filter0_d)">
<circle cx="70" cy="66" r="50" fill="white"/>
</g>
<path d="M49.1521 52.9225C45.8521 52.9225 43.1743 50.2556 43.1743 46.9691C43.1743 43.6826 45.8521 41.0157 49.1521 41.0157C52.4522 41.0157 55.13 43.6826 55.13 46.9691C55.1379 50.2556 52.4601 52.9225 49.1521 52.9225ZM69.102 55.8953V55.9032V55.911V55.8953ZM39 58.8838V70.2023C39 71.8495 40.3074 73.183 41.9614 73.183C42.6308 73.183 43.3082 72.9633 43.7256 72.5868V87.0194C43.7256 88.6666 45.0803 90 46.7342 90C48.3882 90 49.7428 88.6666 49.7428 87.0194C49.7428 88.6666 51.0739 90 52.7278 90C54.3818 90 55.6971 88.6666 55.6971 87.0194V58.8838H66.0461C67.6922 58.8838 69.0941 57.5896 69.102 55.9502C69.0941 54.3109 67.6922 53.0323 66.0461 53.0323H55.7286H54.1219C52.7751 53.9736 51.0581 54.7658 49.1758 54.7658C47.317 54.7658 45.6001 54.0677 44.2612 52.9774C41.2919 53.3304 39 55.8326 39 58.8838ZM67.6843 88.4156C67.322 88.7764 67.322 89.3647 67.6843 89.7255C68.0466 90.0863 68.6373 90.0863 68.9996 89.7255L80.152 78.6187L91.3044 89.7255C91.6667 90.0863 92.2574 90.0863 92.6197 89.7255C92.982 89.3647 92.982 88.7764 92.6197 88.4156L80.8057 76.6499C80.4434 76.2891 79.8527 76.2891 79.4904 76.6499L67.6843 88.4156ZM61.1551 60.7663H58.3198V71.7789C58.3198 73.3791 59.643 74.6733 61.2418 74.6733H99.0465C100.653 74.6733 102 73.3791 102 71.7789V45.2199C102 43.6198 100.645 42.357 99.0465 42.357H84.791C84.791 41.6275 84.1688 41 83.3969 41H76.8992C76.1274 41 75.5052 41.6275 75.5052 42.357H61.2418C59.6351 42.357 58.3198 43.6198 58.3198 45.2199V51.142H61.1551V45.2199C61.1551 45.1572 61.1788 45.1807 61.2418 45.1807H99.0465C99.1095 45.1807 99.1646 45.1494 99.1646 45.2199V71.7789C99.1646 71.8417 99.1095 71.9515 99.0465 71.9515H61.2418C61.1788 71.9515 61.1551 71.8417 61.1551 71.7789V60.7663Z" fill="#009900"/>
<defs>
<filter id="filter0_d" x="0" y="0" width="140" height="140" filterUnits="userSpaceOnUse" color-interpolation-filters="sRGB">
<feFlood flood-opacity="0" result="BackgroundImageFix"/>
<feColorMatrix in="SourceAlpha" type="matrix" values="0 0 0 0 0 0 0 0 0 0 0 0 0 0 0 0 0 0 127 0"/>
<feOffset dy="4"/>
<feGaussianBlur stdDeviation="10"/>
<feColorMatrix type="matrix" values="0 0 0 0 0.0823529 0 0 0 0 0.0823529 0 0 0 0 0.0980392 0 0 0 0.1 0"/>
<feBlend mode="normal" in2="BackgroundImageFix" result="effect1_dropShadow"/>
<feBlend mode="normal" in="SourceGraphic" in2="effect1_dropShadow" result="shape"/>
</filter>
</defs>
</svg>
