<svg width="43" height="43" viewBox="0 0 43 43" fill="none" xmlns="http://www.w3.org/2000/svg">
<g filter="url(#filter0_d)">
<circle cx="18.5" cy="17.5" r="15.5" fill="white"/>
</g>
<path d="M28.7009 12.3101C28.0441 12.5983 27.3441 12.7893 26.6144 12.882C27.3651 12.4338 27.9381 11.7294 28.2074 10.8805C27.5075 11.2978 26.7347 11.5925 25.9111 11.757C25.2465 11.0494 24.2993 10.6111 23.266 10.6111C21.2611 10.6111 19.6471 12.2384 19.6471 14.2333C19.6471 14.5203 19.6714 14.7963 19.731 15.0591C16.7204 14.9122 14.0565 13.4693 12.267 11.2713C11.9545 11.8133 11.7713 12.4338 11.7713 13.1017C11.7713 14.3558 12.4171 15.4675 13.3798 16.1112C12.798 16.1001 12.2272 15.9312 11.7437 15.6651C11.7437 15.6762 11.7437 15.6905 11.7437 15.7049C11.7437 17.4646 12.9989 18.9263 14.6449 19.263C14.3502 19.3436 14.0289 19.3823 13.6955 19.3823C13.4637 19.3823 13.2296 19.369 13.0099 19.3204C13.4791 20.7545 14.8105 21.8088 16.3937 21.8431C15.1616 22.8068 13.5973 23.3875 11.9037 23.3875C11.6068 23.3875 11.3219 23.3743 11.0371 23.3379C12.6412 24.3723 14.5423 24.9629 16.5924 24.9629C23.2561 24.9629 26.8992 19.443 26.8992 14.6583C26.8992 14.4982 26.8937 14.3437 26.886 14.1902C27.6047 13.6802 28.2085 13.0432 28.7009 12.3101Z" fill="#69B7FF"/>
<defs>
<filter id="filter0_d" x="0" y="0" width="43" height="43" filterUnits="userSpaceOnUse" color-interpolation-filters="sRGB">
<feFlood flood-opacity="0" result="BackgroundImageFix"/>
<feColorMatrix in="SourceAlpha" type="matrix" values="0 0 0 0 0 0 0 0 0 0 0 0 0 0 0 0 0 0 127 0"/>
<feMorphology radius="2" operator="dilate" in="SourceAlpha" result="effect1_dropShadow"/>
<feOffset dx="3" dy="4"/>
<feGaussianBlur stdDeviation="2"/>
<feColorMatrix type="matrix" values="0 0 0 0 0 0 0 0 0 0 0 0 0 0 0 0 0 0 0.05 0"/>
<feBlend mode="normal" in2="BackgroundImageFix" result="effect1_dropShadow"/>
<feBlend mode="normal" in="SourceGraphic" in2="effect1_dropShadow" result="shape"/>
</filter>
</defs>
</svg>
